<svg xmlns="http://www.w3.org/2000/svg" viewBox="0 0 328.54 133.25"><defs><style>.cls-1{fill:#f9c014;}.cls-2{fill:#272828;}</style></defs><title>Asset 1</title><g id="Layer_2" data-name="Layer 2"><g id="Layer_1-2" data-name="Layer 1"><polygon class="cls-1" points="0 56.91 0 131.23 59.83 131.23 0 56.91"/><polygon class="cls-1" points="0 0.19 11.33 0.19 116.69 131.23 77.81 131.23 0 35.03 0 0.19"/><polygon class="cls-1" points="28.95 0.19 69.08 0.19 131.05 77.21 131.07 126.86 28.95 0.19"/><path class="cls-2" d="M174.17,18.53a9.86,9.86,0,0,1-3,7.1A9.69,9.69,0,0,1,164,28.68a9.11,9.11,0,0,1-7-3.15,10.22,10.22,0,0,1-2.84-7,10.07,10.07,0,0,1,2.84-7,9.17,9.17,0,0,1,7-3.11,9.76,9.76,0,0,1,7.17,3A9.71,9.71,0,0,1,174.17,18.53ZM155.63,131.37V44.86h17v86.51Z"/><path class="cls-2" d="M221.08,133.25a83.6,83.6,0,0,1-33.16-6.67V0h17V51.06a38.49,38.49,0,0,1,23.66-7.9,33.25,33.25,0,0,1,19.1,5.69,38.09,38.09,0,0,1,13.09,15.71,52.88,52.88,0,0,1,4.7,22.71q0,14.48-5.73,24.87a38.28,38.28,0,0,1-15.84,15.75A47.75,47.75,0,0,1,221.08,133.25Zm.65-15q11.64,0,19.05-8.09t7.41-22.38q0-13.64-6.66-21.63a21.77,21.77,0,0,0-17.56-8q-10.07,0-19.1,8.46v48.9c3.11.88,5.88,1.56,8.34,2A45.67,45.67,0,0,0,221.73,118.3Z"/><path class="cls-2" d="M298.36,43.16a53.05,53.05,0,0,1,26,7.15V67.43a86.19,86.19,0,0,0-13.56-7,31.34,31.34,0,0,0-11.31-2.21q-5.5,0-8.16,1.93a5.56,5.56,0,0,0-2.65,4.56,8.34,8.34,0,0,0,1,4.28,18.17,18.17,0,0,0,4.66,4.42,133,133,0,0,0,11.27,7.1A87.59,87.59,0,0,1,322.3,92.86a21,21,0,0,1,6.24,15.57,24.32,24.32,0,0,1-3,11.33,23.83,23.83,0,0,1-9.64,9.5q-6.66,3.81-16.82,3.81a51.79,51.79,0,0,1-13.27-1.6,84.13,84.13,0,0,1-15.32-6.3V106.73a62.37,62.37,0,0,0,13.73,8.09,34.61,34.61,0,0,0,13.56,3.29q6.7,0,9.92-2.3a6.89,6.89,0,0,0,3.21-5.79,8.93,8.93,0,0,0-1.21-4.84c-.81-1.28-2.59-2.88-5.36-4.79s-7.37-4.81-13.83-8.7-11.16-7.89-14.48-11.8a21.19,21.19,0,0,1-5-14.16,20.05,20.05,0,0,1,7.74-16.22Q286.52,43.17,298.36,43.16Z"/></g></g></svg>